<?xml version="1.0" encoding="utf-8"?>
<!-- Generator: Adobe Illustrator 15.0.2, SVG Export Plug-In . SVG Version: 6.00 Build 0)  -->
<!DOCTYPE svg PUBLIC "-//W3C//DTD SVG 1.1//EN" "http://www.w3.org/Graphics/SVG/1.1/DTD/svg11.dtd">
<svg version="1.1" id="Ebene_1" xmlns="http://www.w3.org/2000/svg" xmlns:xlink="http://www.w3.org/1999/xlink" x="0px" y="0px"
	 width="450px" height="100px" viewBox="0 0 450 100" enable-background="new 0 0 450 100" xml:space="preserve">
<g>
	<path fill="#AD0F0B" d="M259.561,12.006c-10.664-4.421-22.36-6.866-34.635-6.866c-12.273,0-23.97,2.445-34.633,6.866
		c-0.488,3.779-0.742,7.63-0.742,11.539c0,29.023,13.873,54.817,35.375,71.195c21.503-16.378,35.377-42.172,35.377-71.195
		C260.303,19.637,260.047,15.785,259.561,12.006"/>
	<path fill="#FFFFFF" d="M238.668,48.347l-3.093,27.77c7.071-8.688,12.414-18.812,15.542-29.863L238.668,48.347z M198.737,46.253
		c3.127,11.05,8.471,21.175,15.541,29.863l-3.09-27.77L198.737,46.253z M208.99,28.578l-13.341-1.785
		c0.146,3.797,0.559,7.523,1.198,11.174l13.396,1.875L208.99,28.578z M230.672,21.741l23.478-2.835
		c-0.051-0.89-0.099-1.781-0.179-2.665c-9.05-3.314-18.834-5.126-29.044-5.126s-19.994,1.812-29.046,5.126
		c-0.079,0.884-0.126,1.775-0.178,2.665l23.477,2.834l2.719,62.59c0.988,0.93,1.994,1.842,3.027,2.725
		c1.035-0.883,2.039-1.796,3.027-2.725L230.672,21.741z M253.007,37.967c0.639-3.651,1.052-7.378,1.198-11.174l-13.338,1.786
		l-1.254,11.265L253.007,37.967z"/>
</g>
<g>
	<path fill="#FFFFFF" d="M11.734,47.937v10.716H8.771V47.937H5.009v-2.565h10.488v2.565H11.734z"/>
	<path fill="#FFFFFF" d="M28.758,45.371v2.642h-6.612v2.735h5.947v2.527h-5.947v2.755h6.821v2.622h-9.785V45.371H28.758z"/>
	<path fill="#FFFFFF" d="M36.235,48.021c-0.285,0.235-0.428,0.545-0.428,0.932s0.174,0.693,0.522,0.921
		c0.348,0.229,1.152,0.498,2.413,0.808c1.26,0.311,2.239,0.776,2.936,1.396c0.696,0.621,1.045,1.526,1.045,2.717
		c0,1.191-0.446,2.157-1.339,2.897c-0.893,0.741-2.068,1.112-3.524,1.112c-2.103,0-3.997-0.779-5.681-2.337l1.767-2.166
		c1.431,1.254,2.755,1.881,3.971,1.881c0.544,0,0.972-0.117,1.283-0.352c0.31-0.234,0.465-0.551,0.465-0.95s-0.165-0.716-0.494-0.95
		c-0.329-0.234-0.981-0.472-1.957-0.712c-1.546-0.367-2.676-0.846-3.392-1.435c-0.716-0.589-1.074-1.514-1.074-2.774
		c0-1.26,0.453-2.232,1.358-2.916c0.906-0.685,2.036-1.026,3.392-1.026c0.887,0,1.773,0.152,2.66,0.456
		c0.886,0.304,1.659,0.734,2.318,1.292l-1.501,2.166c-1.153-0.874-2.343-1.312-3.572-1.312C36.909,47.67,36.52,47.788,36.235,48.021
		z"/>
	<path fill="#FFFFFF" d="M46.77,58.652V45.371h2.964v10.641h5.662v2.641H46.77z"/>
	<path fill="#FFFFFF" d="M68.544,58.652l-1.235-2.869h-5.567l-1.235,2.869h-3.154l5.738-13.281h2.869l5.738,13.281H68.544z
		 M64.535,49.323l-1.672,3.857h3.325L64.535,49.323z"/>
	<path fill="#FFFFFF" d="M90.412,45.371v2.604h-6.156v2.869h5.852v2.603h-5.852v5.206h-2.964V45.371H90.412z"/>
	<path fill="#FFFFFF" d="M103.181,58.652l-1.235-2.869h-5.567l-1.235,2.869h-3.154l5.738-13.281h2.869l5.738,13.281H103.181z
		 M99.171,49.323L97.5,53.181h3.325L99.171,49.323z"/>
	<path fill="#FFFFFF" d="M117.639,45.371h2.964v13.281h-2.964v-5.225h-5.282v5.225h-2.964V45.371h2.964v5.548h5.282V45.371z"/>
	<path fill="#FFFFFF" d="M136.165,49.779c0,2.128-0.843,3.503-2.527,4.123l3.363,4.75h-3.648l-2.945-4.237h-2.052v4.237h-2.964
		V45.371h5.035c2.064,0,3.537,0.349,4.417,1.045C135.724,47.113,136.165,48.234,136.165,49.779z M132.592,51.356
		c0.367-0.329,0.551-0.852,0.551-1.567s-0.19-1.207-0.57-1.473s-1.045-0.399-1.995-0.399h-2.223v3.934h2.166
		C131.535,51.851,132.225,51.686,132.592,51.356z"/>
	<path fill="#FFFFFF" d="M150.3,45.371v2.642h-6.612v2.735h5.947v2.527h-5.947v2.755h6.821v2.622h-9.785V45.371H150.3z"/>
	<path fill="#FFFFFF" d="M165.443,49.779c0,2.128-0.843,3.503-2.527,4.123l3.363,4.75h-3.648l-2.945-4.237h-2.052v4.237h-2.964
		V45.371h5.035c2.064,0,3.537,0.349,4.417,1.045C165.003,47.113,165.443,48.234,165.443,49.779z M161.871,51.356
		c0.367-0.329,0.551-0.852,0.551-1.567s-0.19-1.207-0.57-1.473s-1.045-0.399-1.995-0.399h-2.223v3.934h2.166
		C160.813,51.851,161.503,51.686,161.871,51.356z"/>
</g>
<g>
	<path fill="#FFFFFF" d="M289.625,55.223c0.494,0.614,1.16,0.922,1.996,0.922s1.497-0.308,1.984-0.922
		c0.488-0.614,0.732-1.453,0.732-2.518v-7.334h2.964v7.43c0,1.925-0.532,3.404-1.597,4.437c-1.063,1.032-2.426,1.548-4.084,1.548
		c-1.66,0-3.025-0.52-4.096-1.558c-1.07-1.039-1.605-2.515-1.605-4.427v-7.43h2.965v7.334
		C288.885,53.77,289.131,54.608,289.625,55.223z"/>
	<path fill="#FFFFFF" d="M311.19,45.371h2.964v13.281h-2.964l-6.327-8.322v8.322h-2.964V45.371h2.774l6.517,8.55V45.371z"/>
	<path fill="#FFFFFF" d="M329.088,47.109c1.268,1.159,1.9,2.771,1.9,4.836s-0.617,3.699-1.852,4.902
		c-1.236,1.203-3.12,1.805-5.653,1.805h-4.541V45.371h4.693C326.004,45.371,327.822,45.951,329.088,47.109z M326.913,55.004
		c0.728-0.684,1.093-1.678,1.093-2.982s-0.365-2.309-1.093-3.012c-0.729-0.703-1.847-1.055-3.354-1.055h-1.653v8.075h1.881
		C325.143,56.03,326.185,55.688,326.913,55.004z"/>
	<path fill="#FFFFFF" d="M354.148,45.371v2.604h-6.155v2.869h5.853v2.603h-5.853v5.206h-2.964V45.371H354.148z"/>
	<path fill="#FFFFFF" d="M368.95,49.779c0,2.128-0.843,3.503-2.527,4.123l3.363,4.75h-3.647l-2.945-4.237h-2.053v4.237h-2.964
		V45.371h5.035c2.064,0,3.537,0.349,4.417,1.045C368.51,47.113,368.95,48.234,368.95,49.779z M365.378,51.356
		c0.367-0.329,0.552-0.852,0.552-1.567s-0.191-1.207-0.57-1.473c-0.381-0.266-1.045-0.399-1.996-0.399h-2.223v3.934h2.166
		C364.32,51.851,365.01,51.686,365.378,51.356z"/>
	<path fill="#FFFFFF" d="M383.086,45.371v2.642h-6.611v2.735h5.946v2.527h-5.946v2.755h6.82v2.622h-9.785V45.371H383.086z"/>
	<path fill="#FFFFFF" d="M390.971,55.223c0.494,0.614,1.159,0.922,1.995,0.922s1.497-0.308,1.985-0.922s0.731-1.453,0.731-2.518
		v-7.334h2.964v7.43c0,1.925-0.531,3.404-1.596,4.437s-2.426,1.548-4.085,1.548s-3.024-0.52-4.095-1.558
		c-1.07-1.039-1.605-2.515-1.605-4.427v-7.43h2.965v7.334C390.23,53.77,390.477,54.608,390.971,55.223z"/>
	<path fill="#FFFFFF" d="M412.535,45.371h2.965v13.281h-2.965l-6.326-8.322v8.322h-2.965V45.371h2.775l6.516,8.55V45.371z"/>
	<path fill="#FFFFFF" d="M430.434,47.109c1.267,1.159,1.9,2.771,1.9,4.836s-0.617,3.699-1.853,4.902s-3.12,1.805-5.653,1.805h-4.541
		V45.371h4.693C427.35,45.371,429.167,45.951,430.434,47.109z M428.258,55.004c0.729-0.684,1.093-1.678,1.093-2.982
		s-0.364-2.309-1.093-3.012s-1.846-1.055-3.354-1.055h-1.652v8.075h1.881C426.488,56.03,427.529,55.688,428.258,55.004z"/>
	<path fill="#FFFFFF" d="M445.994,45.371v2.642h-6.611v2.735h5.947v2.527h-5.947v2.755h6.82v2.622h-9.785V45.371H445.994z"/>
</g>
</svg>
